<mxfile host="app.diagrams.net" modified="2022-04-28T13:49:17.121Z" agent="5.0 (Windows NT 10.0; Win64; x64) AppleWebKit/537.36 (KHTML, like Gecko) Chrome/100.0.4896.127 Safari/537.36" etag="4QFVq_TrrMlKFZMt2qXu" version="17.4.6" type="github" pages="2">
  <diagram id="plUcFlSBtSp88UgE9lep" name="Page-1">
    <mxGraphModel dx="881" dy="703" grid="1" gridSize="10" guides="1" tooltips="1" connect="1" arrows="1" fold="1" page="1" pageScale="1" pageWidth="827" pageHeight="1169" math="0" shadow="0">
      <root>
        <mxCell id="0" />
        <mxCell id="1" parent="0" />
        <mxCell id="uczKealf0afYfWxNkOeV-1" value="SamuraiSoccer" style="html=1;dropTarget=0;" parent="1" vertex="1">
          <mxGeometry x="80" y="80" width="160" height="40" as="geometry" />
        </mxCell>
        <mxCell id="uczKealf0afYfWxNkOeV-2" value="" style="shape=module;jettyWidth=8;jettyHeight=4;" parent="uczKealf0afYfWxNkOeV-1" vertex="1">
          <mxGeometry x="1" width="20" height="20" relative="1" as="geometry">
            <mxPoint x="-27" y="7" as="offset" />
          </mxGeometry>
        </mxCell>
        <mxCell id="uczKealf0afYfWxNkOeV-3" value="SoccerGame" style="html=1;dropTarget=0;" parent="1" vertex="1">
          <mxGeometry x="280" y="540" width="160" height="40" as="geometry" />
        </mxCell>
        <mxCell id="uczKealf0afYfWxNkOeV-4" value="" style="shape=module;jettyWidth=8;jettyHeight=4;" parent="uczKealf0afYfWxNkOeV-3" vertex="1">
          <mxGeometry x="1" width="20" height="20" relative="1" as="geometry">
            <mxPoint x="-27" y="7" as="offset" />
          </mxGeometry>
        </mxCell>
        <mxCell id="uczKealf0afYfWxNkOeV-5" value="UI" style="html=1;dropTarget=0;" parent="1" vertex="1">
          <mxGeometry x="280" y="160" width="160" height="40" as="geometry" />
        </mxCell>
        <mxCell id="uczKealf0afYfWxNkOeV-6" value="" style="shape=module;jettyWidth=8;jettyHeight=4;" parent="uczKealf0afYfWxNkOeV-5" vertex="1">
          <mxGeometry x="1" width="20" height="20" relative="1" as="geometry">
            <mxPoint x="-27" y="7" as="offset" />
          </mxGeometry>
        </mxCell>
        <mxCell id="uczKealf0afYfWxNkOeV-7" value="StageContents" style="html=1;dropTarget=0;" parent="1" vertex="1">
          <mxGeometry x="280" y="240" width="160" height="40" as="geometry" />
        </mxCell>
        <mxCell id="uczKealf0afYfWxNkOeV-8" value="" style="shape=module;jettyWidth=8;jettyHeight=4;" parent="uczKealf0afYfWxNkOeV-7" vertex="1">
          <mxGeometry x="1" width="20" height="20" relative="1" as="geometry">
            <mxPoint x="-27" y="7" as="offset" />
          </mxGeometry>
        </mxCell>
        <mxCell id="uczKealf0afYfWxNkOeV-9" value="AI" style="html=1;dropTarget=0;" parent="1" vertex="1">
          <mxGeometry x="480" y="580" width="160" height="40" as="geometry" />
        </mxCell>
        <mxCell id="uczKealf0afYfWxNkOeV-10" value="" style="shape=module;jettyWidth=8;jettyHeight=4;" parent="uczKealf0afYfWxNkOeV-9" vertex="1">
          <mxGeometry x="1" width="20" height="20" relative="1" as="geometry">
            <mxPoint x="-27" y="7" as="offset" />
          </mxGeometry>
        </mxCell>
        <mxCell id="uczKealf0afYfWxNkOeV-11" value="UK" style="html=1;dropTarget=0;" parent="1" vertex="1">
          <mxGeometry x="480" y="280" width="160" height="40" as="geometry" />
        </mxCell>
        <mxCell id="uczKealf0afYfWxNkOeV-12" value="" style="shape=module;jettyWidth=8;jettyHeight=4;" parent="uczKealf0afYfWxNkOeV-11" vertex="1">
          <mxGeometry x="1" width="20" height="20" relative="1" as="geometry">
            <mxPoint x="-27" y="7" as="offset" />
          </mxGeometry>
        </mxCell>
        <mxCell id="uczKealf0afYfWxNkOeV-13" value="" style="endArrow=none;html=1;rounded=0;entryX=0.5;entryY=1;entryDx=0;entryDy=0;" parent="1" target="uczKealf0afYfWxNkOeV-1" edge="1">
          <mxGeometry width="50" height="50" relative="1" as="geometry">
            <mxPoint x="160" y="180" as="sourcePoint" />
            <mxPoint x="160" y="160" as="targetPoint" />
          </mxGeometry>
        </mxCell>
        <mxCell id="uczKealf0afYfWxNkOeV-14" value="" style="endArrow=none;html=1;rounded=0;entryX=0;entryY=0.5;entryDx=0;entryDy=0;" parent="1" target="uczKealf0afYfWxNkOeV-5" edge="1">
          <mxGeometry width="50" height="50" relative="1" as="geometry">
            <mxPoint x="160" y="180" as="sourcePoint" />
            <mxPoint x="170" y="130" as="targetPoint" />
          </mxGeometry>
        </mxCell>
        <mxCell id="uczKealf0afYfWxNkOeV-15" value="" style="endArrow=none;html=1;rounded=0;" parent="1" edge="1">
          <mxGeometry width="50" height="50" relative="1" as="geometry">
            <mxPoint x="160" y="180" as="sourcePoint" />
            <mxPoint x="160" y="260" as="targetPoint" />
          </mxGeometry>
        </mxCell>
        <mxCell id="uczKealf0afYfWxNkOeV-16" value="" style="endArrow=none;html=1;rounded=0;exitX=0;exitY=0.5;exitDx=0;exitDy=0;" parent="1" source="uczKealf0afYfWxNkOeV-7" edge="1">
          <mxGeometry width="50" height="50" relative="1" as="geometry">
            <mxPoint x="170" y="190" as="sourcePoint" />
            <mxPoint x="160" y="260" as="targetPoint" />
          </mxGeometry>
        </mxCell>
        <mxCell id="uczKealf0afYfWxNkOeV-17" value="" style="endArrow=none;html=1;rounded=0;" parent="1" edge="1">
          <mxGeometry width="50" height="50" relative="1" as="geometry">
            <mxPoint x="160" y="730" as="sourcePoint" />
            <mxPoint x="160" y="260" as="targetPoint" />
          </mxGeometry>
        </mxCell>
        <mxCell id="uczKealf0afYfWxNkOeV-18" value="" style="endArrow=none;html=1;rounded=0;entryX=0;entryY=0.5;entryDx=0;entryDy=0;" parent="1" target="uczKealf0afYfWxNkOeV-3" edge="1">
          <mxGeometry width="50" height="50" relative="1" as="geometry">
            <mxPoint x="160" y="560" as="sourcePoint" />
            <mxPoint x="170" y="450" as="targetPoint" />
          </mxGeometry>
        </mxCell>
        <mxCell id="uczKealf0afYfWxNkOeV-19" value="" style="endArrow=none;html=1;rounded=0;entryX=0.5;entryY=1;entryDx=0;entryDy=0;" parent="1" target="uczKealf0afYfWxNkOeV-7" edge="1">
          <mxGeometry width="50" height="50" relative="1" as="geometry">
            <mxPoint x="360" y="500" as="sourcePoint" />
            <mxPoint x="290" y="350" as="targetPoint" />
          </mxGeometry>
        </mxCell>
        <mxCell id="uczKealf0afYfWxNkOeV-20" value="" style="endArrow=none;html=1;rounded=0;entryX=0;entryY=0.5;entryDx=0;entryDy=0;" parent="1" target="uczKealf0afYfWxNkOeV-11" edge="1">
          <mxGeometry width="50" height="50" relative="1" as="geometry">
            <mxPoint x="360" y="300" as="sourcePoint" />
            <mxPoint x="370" y="290" as="targetPoint" />
          </mxGeometry>
        </mxCell>
        <mxCell id="uczKealf0afYfWxNkOeV-21" value="" style="endArrow=none;html=1;rounded=0;" parent="1" edge="1">
          <mxGeometry width="50" height="50" relative="1" as="geometry">
            <mxPoint x="359.5" y="580" as="sourcePoint" />
            <mxPoint x="360" y="600" as="targetPoint" />
          </mxGeometry>
        </mxCell>
        <mxCell id="uczKealf0afYfWxNkOeV-22" value="" style="endArrow=none;html=1;rounded=0;entryX=0;entryY=0.5;entryDx=0;entryDy=0;" parent="1" target="uczKealf0afYfWxNkOeV-9" edge="1">
          <mxGeometry width="50" height="50" relative="1" as="geometry">
            <mxPoint x="360" y="600" as="sourcePoint" />
            <mxPoint x="390" y="620" as="targetPoint" />
          </mxGeometry>
        </mxCell>
        <mxCell id="0FoHO9aQND-p1DmQUGvG-3" value="" style="endArrow=none;html=1;rounded=0;entryX=0;entryY=0.5;entryDx=0;entryDy=0;" parent="1" target="0FoHO9aQND-p1DmQUGvG-4" edge="1">
          <mxGeometry width="50" height="50" relative="1" as="geometry">
            <mxPoint x="160" y="660" as="sourcePoint" />
            <mxPoint x="170" y="610" as="targetPoint" />
            <Array as="points">
              <mxPoint x="230" y="660" />
            </Array>
          </mxGeometry>
        </mxCell>
        <mxCell id="0FoHO9aQND-p1DmQUGvG-4" value="Event" style="html=1;dropTarget=0;" parent="1" vertex="1">
          <mxGeometry x="280" y="640" width="160" height="40" as="geometry" />
        </mxCell>
        <mxCell id="0FoHO9aQND-p1DmQUGvG-5" value="" style="shape=module;jettyWidth=8;jettyHeight=4;" parent="0FoHO9aQND-p1DmQUGvG-4" vertex="1">
          <mxGeometry x="1" width="20" height="20" relative="1" as="geometry">
            <mxPoint x="-27" y="7" as="offset" />
          </mxGeometry>
        </mxCell>
        <mxCell id="0FoHO9aQND-p1DmQUGvG-6" value="Player" style="html=1;dropTarget=0;" parent="1" vertex="1">
          <mxGeometry x="280" y="710" width="160" height="40" as="geometry" />
        </mxCell>
        <mxCell id="0FoHO9aQND-p1DmQUGvG-7" value="" style="shape=module;jettyWidth=8;jettyHeight=4;" parent="0FoHO9aQND-p1DmQUGvG-6" vertex="1">
          <mxGeometry x="1" width="20" height="20" relative="1" as="geometry">
            <mxPoint x="-27" y="7" as="offset" />
          </mxGeometry>
        </mxCell>
        <mxCell id="0FoHO9aQND-p1DmQUGvG-8" value="" style="endArrow=none;html=1;rounded=0;entryX=0;entryY=0.5;entryDx=0;entryDy=0;" parent="1" target="0FoHO9aQND-p1DmQUGvG-6" edge="1">
          <mxGeometry width="50" height="50" relative="1" as="geometry">
            <mxPoint x="160" y="730" as="sourcePoint" />
            <mxPoint x="170" y="680" as="targetPoint" />
            <Array as="points">
              <mxPoint x="220" y="730" />
            </Array>
          </mxGeometry>
        </mxCell>
        <mxCell id="0FoHO9aQND-p1DmQUGvG-11" value="" style="endArrow=none;html=1;rounded=0;entryX=0;entryY=0.5;entryDx=0;entryDy=0;" parent="1" target="0FoHO9aQND-p1DmQUGvG-12" edge="1">
          <mxGeometry width="50" height="50" relative="1" as="geometry">
            <mxPoint x="360" y="350" as="sourcePoint" />
            <mxPoint x="370" y="340" as="targetPoint" />
          </mxGeometry>
        </mxCell>
        <mxCell id="0FoHO9aQND-p1DmQUGvG-12" value="StageSelect" style="html=1;dropTarget=0;" parent="1" vertex="1">
          <mxGeometry x="480" y="330" width="160" height="40" as="geometry" />
        </mxCell>
        <mxCell id="0FoHO9aQND-p1DmQUGvG-13" value="" style="shape=module;jettyWidth=8;jettyHeight=4;" parent="0FoHO9aQND-p1DmQUGvG-12" vertex="1">
          <mxGeometry x="1" width="20" height="20" relative="1" as="geometry">
            <mxPoint x="-27" y="7" as="offset" />
          </mxGeometry>
        </mxCell>
        <mxCell id="0FoHO9aQND-p1DmQUGvG-14" value="" style="endArrow=none;html=1;rounded=0;entryX=0;entryY=0.5;entryDx=0;entryDy=0;" parent="1" target="0FoHO9aQND-p1DmQUGvG-15" edge="1">
          <mxGeometry width="50" height="50" relative="1" as="geometry">
            <mxPoint x="360" y="400" as="sourcePoint" />
            <mxPoint x="370" y="390" as="targetPoint" />
          </mxGeometry>
        </mxCell>
        <mxCell id="0FoHO9aQND-p1DmQUGvG-15" value="Tutorial" style="html=1;dropTarget=0;" parent="1" vertex="1">
          <mxGeometry x="480" y="380" width="160" height="40" as="geometry" />
        </mxCell>
        <mxCell id="0FoHO9aQND-p1DmQUGvG-16" value="" style="shape=module;jettyWidth=8;jettyHeight=4;" parent="0FoHO9aQND-p1DmQUGvG-15" vertex="1">
          <mxGeometry x="1" width="20" height="20" relative="1" as="geometry">
            <mxPoint x="-27" y="7" as="offset" />
          </mxGeometry>
        </mxCell>
        <mxCell id="v8ADuSOjjaIxtO1x6Yuc-2" value="" style="endArrow=none;html=1;rounded=0;entryX=0;entryY=0.5;entryDx=0;entryDy=0;" parent="1" target="v8ADuSOjjaIxtO1x6Yuc-3" edge="1">
          <mxGeometry width="50" height="50" relative="1" as="geometry">
            <mxPoint x="360" y="450" as="sourcePoint" />
            <mxPoint x="370" y="440" as="targetPoint" />
          </mxGeometry>
        </mxCell>
        <mxCell id="v8ADuSOjjaIxtO1x6Yuc-3" value="Start" style="html=1;dropTarget=0;" parent="1" vertex="1">
          <mxGeometry x="480" y="430" width="160" height="40" as="geometry" />
        </mxCell>
        <mxCell id="v8ADuSOjjaIxtO1x6Yuc-4" value="" style="shape=module;jettyWidth=8;jettyHeight=4;" parent="v8ADuSOjjaIxtO1x6Yuc-3" vertex="1">
          <mxGeometry x="1" width="20" height="20" relative="1" as="geometry">
            <mxPoint x="-27" y="7" as="offset" />
          </mxGeometry>
        </mxCell>
        <mxCell id="v8ADuSOjjaIxtO1x6Yuc-5" value="" style="endArrow=none;html=1;rounded=0;entryX=0;entryY=0.5;entryDx=0;entryDy=0;" parent="1" target="v8ADuSOjjaIxtO1x6Yuc-6" edge="1">
          <mxGeometry width="50" height="50" relative="1" as="geometry">
            <mxPoint x="360" y="500" as="sourcePoint" />
            <mxPoint x="370" y="490" as="targetPoint" />
          </mxGeometry>
        </mxCell>
        <mxCell id="v8ADuSOjjaIxtO1x6Yuc-6" value="Result" style="html=1;dropTarget=0;" parent="1" vertex="1">
          <mxGeometry x="480" y="480" width="160" height="40" as="geometry" />
        </mxCell>
        <mxCell id="v8ADuSOjjaIxtO1x6Yuc-7" value="" style="shape=module;jettyWidth=8;jettyHeight=4;" parent="v8ADuSOjjaIxtO1x6Yuc-6" vertex="1">
          <mxGeometry x="1" width="20" height="20" relative="1" as="geometry">
            <mxPoint x="-27" y="7" as="offset" />
          </mxGeometry>
        </mxCell>
      </root>
    </mxGraphModel>
  </diagram>
  <diagram id="b0XpzEW8iv_3vA4QZVtX" name="Page-2">
    <mxGraphModel dx="881" dy="703" grid="1" gridSize="10" guides="1" tooltips="1" connect="1" arrows="1" fold="1" page="1" pageScale="1" pageWidth="827" pageHeight="1169" math="0" shadow="0">
      <root>
        <mxCell id="0" />
        <mxCell id="1" parent="0" />
        <mxCell id="GIIUKV3DEKOwS7-mXjN5-5" value="" style="rounded=0;whiteSpace=wrap;html=1;" parent="1" vertex="1">
          <mxGeometry x="40" y="460" width="230" height="130" as="geometry" />
        </mxCell>
        <mxCell id="GIIUKV3DEKOwS7-mXjN5-3" value="" style="rounded=0;whiteSpace=wrap;html=1;" parent="1" vertex="1">
          <mxGeometry x="40" y="100" width="230" height="330" as="geometry" />
        </mxCell>
        <mxCell id="RjDr-bW90_UxV6xQQirc-1" value="Goal" style="html=1;dropTarget=0;" parent="1" vertex="1">
          <mxGeometry x="75" y="270" width="160" height="40" as="geometry" />
        </mxCell>
        <mxCell id="RjDr-bW90_UxV6xQQirc-2" value="" style="shape=module;jettyWidth=8;jettyHeight=4;" parent="RjDr-bW90_UxV6xQQirc-1" vertex="1">
          <mxGeometry x="1" width="20" height="20" relative="1" as="geometry">
            <mxPoint x="-27" y="7" as="offset" />
          </mxGeometry>
        </mxCell>
        <mxCell id="RjDr-bW90_UxV6xQQirc-3" value="Pause (ON/OFF)" style="html=1;dropTarget=0;" parent="1" vertex="1">
          <mxGeometry x="75" y="320" width="160" height="40" as="geometry" />
        </mxCell>
        <mxCell id="RjDr-bW90_UxV6xQQirc-4" value="" style="shape=module;jettyWidth=8;jettyHeight=4;" parent="RjDr-bW90_UxV6xQQirc-3" vertex="1">
          <mxGeometry x="1" width="20" height="20" relative="1" as="geometry">
            <mxPoint x="-27" y="7" as="offset" />
          </mxGeometry>
        </mxCell>
        <mxCell id="RjDr-bW90_UxV6xQQirc-5" value="Play" style="html=1;dropTarget=0;" parent="1" vertex="1">
          <mxGeometry x="75" y="220" width="160" height="40" as="geometry" />
        </mxCell>
        <mxCell id="RjDr-bW90_UxV6xQQirc-6" value="" style="shape=module;jettyWidth=8;jettyHeight=4;" parent="RjDr-bW90_UxV6xQQirc-5" vertex="1">
          <mxGeometry x="1" width="20" height="20" relative="1" as="geometry">
            <mxPoint x="-27" y="7" as="offset" />
          </mxGeometry>
        </mxCell>
        <mxCell id="RjDr-bW90_UxV6xQQirc-7" value="Standby" style="html=1;dropTarget=0;" parent="1" vertex="1">
          <mxGeometry x="75" y="170" width="160" height="40" as="geometry" />
        </mxCell>
        <mxCell id="RjDr-bW90_UxV6xQQirc-8" value="" style="shape=module;jettyWidth=8;jettyHeight=4;" parent="RjDr-bW90_UxV6xQQirc-7" vertex="1">
          <mxGeometry x="1" width="20" height="20" relative="1" as="geometry">
            <mxPoint x="-27" y="7" as="offset" />
          </mxGeometry>
        </mxCell>
        <mxCell id="RjDr-bW90_UxV6xQQirc-9" value="Reset" style="html=1;dropTarget=0;" parent="1" vertex="1">
          <mxGeometry x="75" y="120" width="160" height="40" as="geometry" />
        </mxCell>
        <mxCell id="RjDr-bW90_UxV6xQQirc-10" value="" style="shape=module;jettyWidth=8;jettyHeight=4;" parent="RjDr-bW90_UxV6xQQirc-9" vertex="1">
          <mxGeometry x="1" width="20" height="20" relative="1" as="geometry">
            <mxPoint x="-27" y="7" as="offset" />
          </mxGeometry>
        </mxCell>
        <mxCell id="RjDr-bW90_UxV6xQQirc-12" value="Finish" style="html=1;dropTarget=0;" parent="1" vertex="1">
          <mxGeometry x="75" y="370" width="160" height="40" as="geometry" />
        </mxCell>
        <mxCell id="RjDr-bW90_UxV6xQQirc-13" value="" style="shape=module;jettyWidth=8;jettyHeight=4;" parent="RjDr-bW90_UxV6xQQirc-12" vertex="1">
          <mxGeometry x="1" width="20" height="20" relative="1" as="geometry">
            <mxPoint x="-27" y="7" as="offset" />
          </mxGeometry>
        </mxCell>
        <mxCell id="RjDr-bW90_UxV6xQQirc-14" value="サブジェクト一覧" style="text;html=1;strokeColor=none;fillColor=none;align=center;verticalAlign=middle;whiteSpace=wrap;rounded=0;" parent="1" vertex="1">
          <mxGeometry x="40" y="40" width="110" height="30" as="geometry" />
        </mxCell>
        <mxCell id="RjDr-bW90_UxV6xQQirc-15" value="シーン間の&lt;br&gt;データの受け渡し" style="text;html=1;strokeColor=none;fillColor=none;align=center;verticalAlign=middle;whiteSpace=wrap;rounded=0;" parent="1" vertex="1">
          <mxGeometry x="400" y="40" width="110" height="30" as="geometry" />
        </mxCell>
        <mxCell id="RjDr-bW90_UxV6xQQirc-16" value="SlidePad" style="html=1;dropTarget=0;" parent="1" vertex="1">
          <mxGeometry x="75" y="480" width="160" height="40" as="geometry" />
        </mxCell>
        <mxCell id="RjDr-bW90_UxV6xQQirc-17" value="" style="shape=module;jettyWidth=8;jettyHeight=4;" parent="RjDr-bW90_UxV6xQQirc-16" vertex="1">
          <mxGeometry x="1" width="20" height="20" relative="1" as="geometry">
            <mxPoint x="-27" y="7" as="offset" />
          </mxGeometry>
        </mxCell>
        <mxCell id="RjDr-bW90_UxV6xQQirc-18" value="Attack" style="html=1;dropTarget=0;" parent="1" vertex="1">
          <mxGeometry x="75" y="530" width="160" height="40" as="geometry" />
        </mxCell>
        <mxCell id="RjDr-bW90_UxV6xQQirc-19" value="" style="shape=module;jettyWidth=8;jettyHeight=4;" parent="RjDr-bW90_UxV6xQQirc-18" vertex="1">
          <mxGeometry x="1" width="20" height="20" relative="1" as="geometry">
            <mxPoint x="-27" y="7" as="offset" />
          </mxGeometry>
        </mxCell>
        <mxCell id="GIIUKV3DEKOwS7-mXjN5-4" value="In Game Event" style="text;html=1;strokeColor=none;fillColor=none;align=center;verticalAlign=middle;whiteSpace=wrap;rounded=0;" parent="1" vertex="1">
          <mxGeometry x="40" y="80" width="100" height="30" as="geometry" />
        </mxCell>
        <mxCell id="GIIUKV3DEKOwS7-mXjN5-6" value="Samurai Input Event" style="text;html=1;strokeColor=none;fillColor=none;align=center;verticalAlign=middle;whiteSpace=wrap;rounded=0;" parent="1" vertex="1">
          <mxGeometry x="40" y="440" width="120" height="30" as="geometry" />
        </mxCell>
        <mxCell id="mTtv2PV7xkwkeK64n7P--1" value="" style="endArrow=classic;html=1;rounded=0;" parent="1" edge="1">
          <mxGeometry width="50" height="50" relative="1" as="geometry">
            <mxPoint x="510" y="54.5" as="sourcePoint" />
            <mxPoint x="600" y="54.5" as="targetPoint" />
          </mxGeometry>
        </mxCell>
        <mxCell id="mTtv2PV7xkwkeK64n7P--2" value="get,post実装" style="text;html=1;strokeColor=none;fillColor=none;align=center;verticalAlign=middle;whiteSpace=wrap;rounded=0;" parent="1" vertex="1">
          <mxGeometry x="610" y="40" width="70" height="30" as="geometry" />
        </mxCell>
        <mxCell id="P3hOoFaZ5Ty0dhVoozXf-1" value="Stage Select Event" style="text;html=1;strokeColor=none;fillColor=none;align=center;verticalAlign=middle;whiteSpace=wrap;rounded=0;" vertex="1" parent="1">
          <mxGeometry x="40" y="610" width="120" height="30" as="geometry" />
        </mxCell>
        <mxCell id="P3hOoFaZ5Ty0dhVoozXf-2" value="" style="rounded=0;whiteSpace=wrap;html=1;" vertex="1" parent="1">
          <mxGeometry x="40" y="630" width="230" height="180" as="geometry" />
        </mxCell>
        <mxCell id="P3hOoFaZ5Ty0dhVoozXf-3" value="World" style="html=1;dropTarget=0;" vertex="1" parent="1">
          <mxGeometry x="75" y="650" width="160" height="40" as="geometry" />
        </mxCell>
        <mxCell id="P3hOoFaZ5Ty0dhVoozXf-4" value="" style="shape=module;jettyWidth=8;jettyHeight=4;" vertex="1" parent="P3hOoFaZ5Ty0dhVoozXf-3">
          <mxGeometry x="1" width="20" height="20" relative="1" as="geometry">
            <mxPoint x="-27" y="7" as="offset" />
          </mxGeometry>
        </mxCell>
        <mxCell id="P3hOoFaZ5Ty0dhVoozXf-5" value="Stage" style="html=1;dropTarget=0;" vertex="1" parent="1">
          <mxGeometry x="75" y="700" width="160" height="40" as="geometry" />
        </mxCell>
        <mxCell id="P3hOoFaZ5Ty0dhVoozXf-6" value="" style="shape=module;jettyWidth=8;jettyHeight=4;" vertex="1" parent="P3hOoFaZ5Ty0dhVoozXf-5">
          <mxGeometry x="1" width="20" height="20" relative="1" as="geometry">
            <mxPoint x="-27" y="7" as="offset" />
          </mxGeometry>
        </mxCell>
        <mxCell id="P3hOoFaZ5Ty0dhVoozXf-7" value="Preview" style="html=1;dropTarget=0;" vertex="1" parent="1">
          <mxGeometry x="75" y="750" width="160" height="40" as="geometry" />
        </mxCell>
        <mxCell id="P3hOoFaZ5Ty0dhVoozXf-8" value="" style="shape=module;jettyWidth=8;jettyHeight=4;" vertex="1" parent="P3hOoFaZ5Ty0dhVoozXf-7">
          <mxGeometry x="1" width="20" height="20" relative="1" as="geometry">
            <mxPoint x="-27" y="7" as="offset" />
          </mxGeometry>
        </mxCell>
        <mxCell id="NqArccgpuQfoJ11p3Msy-1" value="Tutorial Event" style="text;html=1;strokeColor=none;fillColor=none;align=center;verticalAlign=middle;whiteSpace=wrap;rounded=0;" vertex="1" parent="1">
          <mxGeometry x="310" y="80" width="120" height="30" as="geometry" />
        </mxCell>
        <mxCell id="NqArccgpuQfoJ11p3Msy-2" value="" style="rounded=0;whiteSpace=wrap;html=1;" vertex="1" parent="1">
          <mxGeometry x="310" y="100" width="230" height="80" as="geometry" />
        </mxCell>
        <mxCell id="NqArccgpuQfoJ11p3Msy-3" value="Progress(Enum)" style="html=1;dropTarget=0;" vertex="1" parent="1">
          <mxGeometry x="345" y="120" width="160" height="40" as="geometry" />
        </mxCell>
        <mxCell id="NqArccgpuQfoJ11p3Msy-4" value="" style="shape=module;jettyWidth=8;jettyHeight=4;" vertex="1" parent="NqArccgpuQfoJ11p3Msy-3">
          <mxGeometry x="1" width="20" height="20" relative="1" as="geometry">
            <mxPoint x="-27" y="7" as="offset" />
          </mxGeometry>
        </mxCell>
        <mxCell id="NqArccgpuQfoJ11p3Msy-5" style="edgeStyle=orthogonalEdgeStyle;rounded=0;orthogonalLoop=1;jettySize=auto;html=1;exitX=0.5;exitY=1;exitDx=0;exitDy=0;" edge="1" parent="1" source="NqArccgpuQfoJ11p3Msy-2" target="NqArccgpuQfoJ11p3Msy-2">
          <mxGeometry relative="1" as="geometry" />
        </mxCell>
      </root>
    </mxGraphModel>
  </diagram>
</mxfile>
